<svg width="1183" height="1095" viewBox="0 0 1183 1095" fill="none" xmlns="http://www.w3.org/2000/svg">
<path d="M382.058 853.598C402.491 855.508 422.514 860.521 441.436 868.464L561.971 919.061C609.685 939.09 663.267 940.043 711.664 921.724L754.952 905.339C855.128 867.421 908.29 757.903 876.113 655.738L832.577 517.508C818.496 472.799 789.304 434.378 750.003 408.83L634.608 333.815C541.777 273.468 417.667 299.098 356.335 391.28L146.313 706.94C130.855 730.173 127.916 759.557 138.467 785.391C150.323 814.421 177.333 834.454 208.555 837.374L382.058 853.598Z" fill="url(#paint0_linear)"/>
<path d="M1076.51 604.68C1065.93 475.887 938.763 389.308 815.329 427.563L205.604 616.527C167.927 628.204 126.899 616.937 100.469 587.656L96.307 583.045C71.1094 555.129 65.4237 514.693 81.9457 480.911C106.016 431.694 167.482 414.262 213.806 443.516L767.419 793.12C908.293 882.081 1090.14 770.732 1076.51 604.68Z" fill="url(#paint1_linear)"/>
<path d="M112.306 514.148C87.8125 645.162 194.685 763.567 327.515 752.581L926.895 703.008C968.058 699.604 1007.73 720.48 1028.59 756.129C1050.16 792.983 1047.74 839.549 1022.12 873.707C979.478 930.554 894.091 930.205 851.916 873.012L484.123 374.251C379.317 232.124 155.438 283.432 122.986 457.017L112.306 514.148Z" fill="url(#paint2_linear)"/>
<defs>
<linearGradient id="paint0_linear" x1="590.128" y1="965.737" x2="354.335" y2="262.687" gradientUnits="userSpaceOnUse">
<stop stop-color="#F7F0AC"/>
<stop offset="0.5" stop-color="#ACF7F0"/>
<stop offset="1" stop-color="#F0ACF7"/>
</linearGradient>
<linearGradient id="paint1_linear" x1="1081.83" y1="659.736" x2="72.2544" y2="745.268" gradientUnits="userSpaceOnUse">
<stop stop-color="#DDD6F3"/>
<stop offset="1" stop-color="#FAACA8"/>
</linearGradient>
<linearGradient id="paint2_linear" x1="130.537" y1="412.392" x2="1105.93" y2="592.608" gradientUnits="userSpaceOnUse">
<stop stop-color="#E0EAFC"/>
<stop offset="1" stop-color="#CFDEF3"/>
</linearGradient>
</defs>
</svg>
