<svg width="100" height="100" viewBox="0 0 100 100" fill="none" xmlns="http://www.w3.org/2000/svg">
<path d="M29.6875 46.875H26.5625C26.1481 46.875 25.7507 47.0396 25.4576 47.3326C25.1646 47.6257 25 48.0231 25 48.4375C25 48.8519 25.1646 49.2493 25.4576 49.5424C25.7507 49.8354 26.1481 50 26.5625 50H29.6875C30.1019 50 30.4993 49.8354 30.7924 49.5424C31.0854 49.2493 31.25 48.8519 31.25 48.4375C31.25 48.0231 31.0854 47.6257 30.7924 47.3326C30.4993 47.0396 30.1019 46.875 29.6875 46.875Z" fill="#5D5757"/>
<path d="M42.1875 50H45.3125C45.7269 50 46.1243 49.8354 46.4174 49.5424C46.7104 49.2493 46.875 48.8519 46.875 48.4375C46.875 48.0231 46.7104 47.6257 46.4174 47.3326C46.1243 47.0396 45.7269 46.875 45.3125 46.875H42.1875C41.7731 46.875 41.3757 47.0396 41.0826 47.3326C40.7896 47.6257 40.625 48.0231 40.625 48.4375C40.625 48.8519 40.7896 49.2493 41.0826 49.5424C41.3757 49.8354 41.7731 50 42.1875 50Z" fill="#5D5757"/>
<path d="M36.0177 55.1816C36.1488 55.5748 36.4306 55.8997 36.8013 56.085C37.172 56.2703 37.6011 56.3008 37.9942 56.1697C38.3873 56.0387 38.7123 55.7568 38.8976 55.3861C39.0829 55.0155 39.1134 54.5864 38.9823 54.1932L37.4198 49.5058C37.3549 49.3111 37.2523 49.1311 37.1179 48.9761C36.9834 48.8211 36.8197 48.6941 36.6362 48.6024C36.4527 48.5106 36.2529 48.4559 36.0482 48.4414C35.8435 48.4268 35.638 48.4528 35.4433 48.5177C35.2487 48.5825 35.0687 48.6852 34.9137 48.8196C34.7587 48.9541 34.6317 49.1177 34.5399 49.3013C34.4482 49.4848 34.3935 49.6846 34.3789 49.8893C34.3644 50.0939 34.3903 50.2995 34.4552 50.4941L36.0177 55.1816Z" fill="#5D5757"/>
<path d="M28.125 53.125C28.9879 53.125 29.6875 52.4254 29.6875 51.5625C29.6875 50.6996 28.9879 50 28.125 50C27.2621 50 26.5625 50.6996 26.5625 51.5625C26.5625 52.4254 27.2621 53.125 28.125 53.125Z" fill="#5D5757"/>
<path d="M43.75 53.125C44.6129 53.125 45.3125 52.4254 45.3125 51.5625C45.3125 50.6996 44.6129 50 43.75 50C42.8871 50 42.1875 50.6996 42.1875 51.5625C42.1875 52.4254 42.8871 53.125 43.75 53.125Z" fill="#5D5757"/>
<path d="M34.375 62.5H37.5C37.9144 62.5 38.3118 62.3354 38.6049 62.0424C38.8979 61.7493 39.0625 61.3519 39.0625 60.9375C39.0625 60.5231 38.8979 60.1257 38.6049 59.8326C38.3118 59.5396 37.9144 59.375 37.5 59.375H34.375C33.9606 59.375 33.5632 59.5396 33.2701 59.8326C32.9771 60.1257 32.8125 60.5231 32.8125 60.9375C32.8125 61.3519 32.9771 61.7493 33.2701 62.0424C33.5632 62.3354 33.9606 62.5 34.375 62.5Z" fill="#5D5757"/>
<path d="M57.5832 73.7953C54.3391 71.7686 50.6389 70.5867 46.8206 70.3575C46.5313 69.7472 46.113 69.2069 45.5945 68.774L43.3347 66.8909C45.3507 65.803 47.1037 64.2865 48.4704 62.4481C49.837 60.6096 50.7841 58.4939 51.2448 56.25H51.5625C52.9381 56.2505 54.2755 55.797 55.3671 54.9597C56.4586 54.1225 57.2433 52.9485 57.5995 51.6197C57.9556 50.291 57.8633 48.8818 57.3368 47.6109C56.8102 46.34 55.879 45.2784 54.6875 44.5909V39.7097C54.6875 38.8039 54.5091 37.907 54.1625 37.0702C53.8159 36.2334 53.3078 35.4731 52.6674 34.8326C52.0269 34.1922 51.2666 33.6841 50.4298 33.3375C49.593 32.9909 48.6961 32.8125 47.7903 32.8125H47.6268C47.6276 32.3508 47.5372 31.8936 47.3608 31.4669C47.1843 31.0403 46.9254 30.6527 46.5987 30.3265L45.5968 29.3245C42.8278 26.5556 39.0722 25 35.1562 25C31.2403 25 27.4847 26.5556 24.7157 29.3245L20.5807 33.4597C20.5095 33.5307 20.4131 33.5707 20.3125 33.5707C20.212 33.5707 20.1156 33.5307 20.0444 33.4597C19.5543 32.9696 18.93 32.6359 18.2502 32.5007C17.5705 32.3655 16.866 32.4349 16.2257 32.7001C15.5854 32.9654 15.0381 33.4145 14.6531 33.9907C14.268 34.567 14.0625 35.2445 14.0625 35.9375V37.3104C14.0591 38.567 14.3049 39.8117 14.7858 40.9727C15.2666 42.1336 15.973 43.1876 16.8639 44.0737C17.0152 44.2249 17.172 44.3683 17.3314 44.508C16.1097 45.1709 15.1439 46.2221 14.5867 47.4954C14.0295 48.7687 13.9126 50.1914 14.2546 51.5386C14.5967 52.8857 15.378 54.0804 16.4752 54.9337C17.5723 55.787 18.9226 56.2502 20.3125 56.25H20.6302C21.082 58.4486 22.0007 60.5245 23.3242 62.3373C24.6477 64.1502 26.3451 65.6576 28.3016 66.7576C27.8007 67.1968 27.4053 67.7433 27.1449 68.3565C26.8844 68.9697 26.7656 69.6337 26.7973 70.2991C26.7191 70.3049 26.6414 70.3125 26.562 70.3125H26.4359C21.3259 70.3125 16.3625 72.0206 12.3347 75.1654C8.307 78.3101 5.44604 82.711 4.20666 87.6684C3.48859 90.5421 3.12533 93.493 3.125 96.455V96.875H6.25V96.455C6.25031 93.7485 6.58225 91.0522 7.23839 88.4264C8.44093 83.5823 11.4386 79.3758 15.625 76.6582V84.375C15.625 84.6303 15.6876 84.8818 15.8073 85.1074C15.9269 85.3329 16.1001 85.5257 16.3115 85.6689C16.523 85.812 16.7663 85.9012 17.0201 85.9285C17.274 85.9559 17.5307 85.9206 17.7678 85.8257L19.8468 84.9941L14.345 92.8539L16.905 94.6461L27.025 80.1889L36.6922 85.7132C36.8814 85.8212 37.0459 85.9677 37.1751 86.143C37.3043 86.3184 37.3955 86.5189 37.4426 86.7316C37.4897 86.9443 37.4919 87.1645 37.4489 87.378C37.4059 87.5916 37.3187 87.7938 37.1929 87.9717L32.6411 94.4105L35.193 96.2145L39.7448 89.7757C40.3281 88.9518 40.6294 87.9614 40.6036 86.9523C40.5779 85.9432 40.2266 84.9695 39.602 84.1764L46.3437 75.1875C46.7185 74.688 46.9894 74.1184 47.1403 73.5124C47.4268 73.5371 47.7123 73.5692 47.9969 73.6063L44.8441 87.2686C44.1176 90.4191 43.7506 93.6418 43.75 96.875H46.875C46.8755 93.8783 47.2156 90.8914 47.8889 87.9713L48.8678 83.7299L54.1072 85.8257C54.3443 85.9206 54.601 85.9559 54.8549 85.9285C55.1087 85.9012 55.3521 85.8121 55.5635 85.6689C55.775 85.5257 55.9481 85.333 56.0678 85.1074C56.1875 84.8818 56.25 84.6304 56.25 84.375V76.6582C60.4364 79.3758 63.4341 83.5823 64.6366 88.4264C65.2928 91.0522 65.6247 93.7485 65.625 96.455V96.875H68.75V96.455C68.7497 93.493 68.3864 90.5421 67.6683 87.6684C66.2401 81.9079 62.6222 76.9311 57.5832 73.7953ZM51.5625 53.125V46.875C52.3913 46.875 53.1862 47.2042 53.7722 47.7903C54.3583 48.3763 54.6875 49.1712 54.6875 50C54.6875 50.8288 54.3583 51.6237 53.7722 52.2097C53.1862 52.7958 52.3913 53.125 51.5625 53.125ZM17.1875 35.9375C17.1875 35.8625 17.2098 35.7892 17.2515 35.7269C17.2931 35.6645 17.3524 35.6159 17.4217 35.5873C17.4909 35.5586 17.5672 35.5511 17.6407 35.5657C17.7143 35.5804 17.7818 35.6165 17.8349 35.6695C18.4925 36.3256 19.3836 36.694 20.3125 36.694C21.2415 36.694 22.1326 36.3256 22.7902 35.6695L26.9254 31.5344C28.0063 30.4535 29.2895 29.5961 30.7017 29.0111C32.114 28.4261 33.6276 28.125 35.1562 28.125C36.6849 28.125 38.1985 28.4261 39.6108 29.0111C41.023 29.5961 42.3062 30.4535 43.3871 31.5344L44.3891 32.5363C44.4622 32.6096 44.5033 32.7089 44.5033 32.8125C44.5033 32.9161 44.4622 33.0154 44.3891 33.0887L42.6452 34.8326C42.3521 35.1256 42.1875 35.523 42.1875 35.9374C42.1874 36.3518 42.3521 36.7493 42.6451 37.0423C42.9381 37.3354 43.3355 37.5 43.7499 37.5C44.1643 37.5001 44.5618 37.3354 44.8548 37.0424L45.9598 35.9375H47.7903C48.7908 35.9375 49.7502 36.335 50.4576 37.0424C51.165 37.7498 51.5625 38.7092 51.5625 39.7097V43.75H49.4638C48.848 43.7517 48.2379 43.6312 47.669 43.3955C47.1 43.1598 46.5835 42.8136 46.1493 42.3769L41.7298 37.9576C41.4368 37.6646 41.0394 37.5001 40.625 37.5001C40.2106 37.5001 39.8132 37.6646 39.5202 37.9576C37.6881 39.7998 35.5087 41.2603 33.1084 42.2545C30.708 43.2488 28.1343 43.7571 25.5362 43.75H23.6271C21.9192 43.75 20.2813 43.0715 19.0736 41.8639C17.866 40.6562 17.1875 39.0183 17.1875 37.3104V35.9375ZM17.1875 50C17.1884 49.1715 17.518 48.3772 18.1038 47.7913C18.6897 47.2055 19.484 46.8759 20.3125 46.875V53.125C19.484 53.1241 18.6897 52.7945 18.1038 52.2087C17.518 51.6228 17.1884 50.8285 17.1875 50ZM23.4375 53.125V46.8704C23.5008 46.8716 23.5636 46.875 23.6271 46.875H25.5362C31.0729 46.8908 36.425 44.8855 40.5882 41.2354L43.9395 44.5866C45.1513 45.8046 46.7336 46.5855 48.4375 46.8065V53.125C48.4349 55.6115 47.6921 58.0409 46.3039 60.1038C44.9156 62.1667 42.9447 63.7696 40.6423 64.7084C39.6089 64.066 38.3661 63.8509 37.1769 64.1087C35.9877 64.3664 34.9455 65.0768 34.2709 66.0894L33.9417 66.5833L33.6774 66.407C33.3855 66.2124 33.0717 66.0527 32.7426 65.9312C32.6714 65.6974 32.5464 65.4836 32.3775 65.3069C32.2087 65.1302 32.0007 64.9956 31.7703 64.9139C29.3345 64.0492 27.2259 62.4519 25.734 60.3412C24.2421 58.2305 23.4399 55.7098 23.4375 53.125ZM26.562 73.4375C27.0021 73.4373 27.4409 73.3907 27.8712 73.2985L27.8845 73.3252L25.2731 77.2423L24.8549 77.8397L23.8779 73.6056C24.726 73.4944 25.5805 73.4383 26.4359 73.4375H26.562ZM18.75 74.9937C19.4257 74.7084 20.1168 74.4609 20.8201 74.2525L22.2961 80.6488L18.75 82.0671V74.9937ZM43.8438 73.3126L37.0776 82.334L28.7911 77.5988L30.9876 74.3042C31.1404 74.075 31.2299 73.8095 31.247 73.5345C31.2641 73.2596 31.2082 72.985 31.085 72.7386L30.0536 70.6758C29.925 70.4186 29.885 70.126 29.9399 69.8436C29.9948 69.5613 30.1415 69.305 30.3571 69.1146C30.5727 68.9243 30.8452 68.8105 31.1322 68.7911C31.4192 68.7716 31.7046 68.8476 31.9439 69.0071L33.5083 70.05C33.8531 70.2799 34.2751 70.3634 34.6814 70.2821C35.0878 70.2008 35.4452 69.9615 35.675 69.6167L36.871 67.8228C36.9926 67.6404 37.1512 67.4856 37.3366 67.3686C37.5219 67.2515 37.7299 67.1747 37.9468 67.1432C38.1638 67.1118 38.385 67.1263 38.5959 67.1859C38.8069 67.2455 39.003 67.3489 39.1714 67.4892L43.594 71.1746C43.9018 71.431 44.0995 71.7958 44.1459 72.1937C44.1924 72.5916 44.0842 72.9922 43.8438 73.3126ZM49.5788 80.6487L51.055 74.2518C51.7582 74.4605 52.4493 74.7082 53.125 74.9937V82.0671L49.5788 80.6487Z" fill="#5D5757"/>
<path d="M78.9062 3.125H74.2188C71.0664 3.1258 67.9697 3.95569 65.2394 5.53139C62.5091 7.10708 60.2413 9.37315 58.6634 12.1022C57.0856 14.8313 56.2533 17.9273 56.25 21.0797C56.2467 24.232 57.0726 27.3298 58.6448 30.0621L56.3302 37.006C56.2519 37.2409 56.2306 37.491 56.2679 37.7357C56.3052 37.9804 56.4002 38.2128 56.5449 38.4136C56.6897 38.6145 56.8801 38.778 57.1004 38.8909C57.3208 39.0037 57.5648 39.0625 57.8124 39.0625C57.8985 39.0624 57.9844 39.0554 58.0693 39.0413L66.9992 37.5534C69.2742 38.5542 71.7334 39.0682 74.2188 39.0625H78.9062C83.6719 39.0625 88.2423 37.1694 91.6121 33.7996C94.9819 30.4298 96.875 25.8594 96.875 21.0937C96.875 16.3281 94.9819 11.7577 91.6121 8.38792C88.2423 5.01813 83.6719 3.125 78.9062 3.125ZM89.403 31.5905C88.0277 32.9731 86.3918 34.0692 84.59 34.8154C82.7883 35.5615 80.8564 35.9429 78.9062 35.9375H74.2188C72.0268 35.9429 69.8613 35.4589 67.8802 34.5209C67.5924 34.385 67.27 34.3402 66.956 34.3924L60.1154 35.5322L61.8378 30.365C61.9112 30.1448 61.9346 29.9111 61.9064 29.6807C61.8781 29.4503 61.7989 29.2292 61.6744 29.0333C60.2535 26.7881 59.4612 24.2027 59.3802 21.547C59.2992 18.8912 59.9326 16.2623 61.2141 13.9348C62.4956 11.6072 64.3784 9.66631 66.6659 8.31458C68.9534 6.96285 71.5617 6.24985 74.2188 6.25H78.9062C81.8421 6.25017 84.7119 7.12085 87.1529 8.75195C89.5939 10.3831 91.4964 12.7013 92.6199 15.4136C93.7435 18.126 94.0375 21.1105 93.4649 23.99C92.8923 26.8694 91.4787 29.5144 89.403 31.5905Z" fill="#5D5757"/>
<path d="M76.5625 8.53833C75.6315 8.53579 74.7092 8.71794 73.8491 9.07421C72.9889 9.43048 72.208 9.95381 71.5514 10.6139C71.5421 10.6233 71.5328 10.6328 71.5237 10.6423L70.7934 11.4108C69.988 12.2246 69.5383 13.3246 69.5428 14.4695C69.5472 15.6145 70.0055 16.7109 70.8172 17.5184C71.6288 18.326 72.7275 18.7787 73.8725 18.7773C75.0174 18.776 76.1151 18.3207 76.9248 17.5113L77.6673 16.7687C77.8124 16.6236 77.9275 16.4514 78.0061 16.2618C78.0846 16.0722 78.125 15.8691 78.1251 15.6639C78.1251 15.4587 78.0847 15.2555 78.0061 15.0659C77.9276 14.8763 77.8125 14.7041 77.6674 14.559C77.5224 14.4139 77.3501 14.2988 77.1605 14.2202C76.971 14.1417 76.7678 14.1013 76.5626 14.1013C76.3574 14.1013 76.1542 14.1417 75.9646 14.2202C75.775 14.2987 75.6028 14.4138 75.4577 14.5589L74.7151 15.3014C74.5897 15.4269 74.4379 15.523 74.2708 15.5828C74.1036 15.6426 73.9253 15.6645 73.7487 15.647C73.5721 15.6295 73.4015 15.5731 73.2494 15.4817C73.0972 15.3904 72.9672 15.2664 72.8687 15.1187C72.7155 14.8877 72.6467 14.611 72.674 14.3351C72.7013 14.0593 72.823 13.8014 73.0186 13.605C73.0279 13.5957 73.0372 13.5861 73.0463 13.5766L73.7741 12.8108C74.5192 12.0719 75.5271 11.6589 76.5765 11.6623C77.6259 11.6658 78.631 12.0854 79.3713 12.8291C80.1116 13.5729 80.5266 14.5799 80.5253 15.6293C80.5239 16.6787 80.1062 17.6846 79.3639 18.4264L77.6672 20.1232C76.819 20.9669 76.1465 21.9704 75.6887 23.0757C75.2308 24.181 74.9968 25.3662 75 26.5626C75 26.977 75.1646 27.3744 75.4577 27.6674C75.7507 27.9605 76.1481 28.1251 76.5625 28.1251C76.9769 28.1251 77.3743 27.9605 77.6674 27.6674C77.9604 27.3744 78.125 26.977 78.125 26.5626C78.1229 25.7767 78.2766 24.9983 78.5773 24.2722C78.8781 23.5462 79.3198 22.887 79.877 22.3328L81.5736 20.6363C82.5647 19.6452 83.2397 18.3824 83.5132 17.0077C83.7866 15.633 83.6463 14.2081 83.1099 12.9131C82.5735 11.6182 81.6652 10.5114 80.4998 9.73264C79.3343 8.95394 77.9642 8.53831 76.5625 8.53833Z" fill="#5D5757"/>
<path d="M76.5625 32.8125C77.4254 32.8125 78.125 32.1129 78.125 31.25C78.125 30.3871 77.4254 29.6875 76.5625 29.6875C75.6996 29.6875 75 30.3871 75 31.25C75 32.1129 75.6996 32.8125 76.5625 32.8125Z" fill="#5D5757"/>
</svg>
