<svg width="100" height="100" viewBox="0 0 100 100" fill="none" xmlns="http://www.w3.org/2000/svg">
<g clip-path="url(#clip0)">
<path d="M97.8215 20.9959L89.7638 12.9383C88.359 11.5334 86.4908 10.7594 84.5039 10.7594C82.517 10.7594 80.649 11.533 79.2439 12.9383L70.3322 21.8498C70.332 21.85 70.3318 21.8502 70.3316 21.8502C70.3316 21.8502 70.3314 21.8506 70.3312 21.8508L55.6941 36.4879C55.8749 33.8057 56.7255 30.4518 58.2202 26.5866C60.328 21.1354 59.1843 16.0992 54.9999 12.4053C51.0647 8.93164 44.871 6.99667 37.5594 6.95624C37.4844 6.95585 37.4098 6.95566 37.3348 6.95566C29.7713 6.95566 21.6953 9.06094 14.5676 12.8943C8.47911 16.169 4.04902 20.1153 1.75664 24.3069C-0.269149 28.0112 -0.55704 31.8555 0.966986 34.8543C2.03222 36.9508 3.88691 38.4487 6.18887 39.0717C8.56505 39.7147 11.2115 39.3883 13.8428 38.1276C21.1569 34.6223 29.6768 33.9166 30.9428 35.9284C31.1461 36.2514 32.5469 39.3917 19.3045 50.0255C17.7864 51.2448 16.3551 52.4567 15.0516 53.6272C14.4496 54.1679 14.3998 55.0938 14.9403 55.6958C15.2295 56.0181 15.6293 56.1819 16.0309 56.1819C16.3793 56.1819 16.7291 56.0583 17.009 55.8071C18.2729 54.6723 19.6625 53.4954 21.1393 52.3097C31.6772 43.8473 35.6952 37.9786 33.4227 34.3676C30.6233 29.9202 19.518 32.1592 12.5768 35.4852C8.7877 37.3008 5.0875 36.4958 3.5791 33.527C2.50019 31.4036 2.77285 28.5551 4.32734 25.7125C5.73555 23.1375 8.8963 19.2713 15.9555 15.4748C22.7301 11.8311 30.4004 9.84355 37.5432 9.88613C44.0503 9.92207 49.7063 11.6408 53.061 14.602C56.3056 17.4658 57.1446 21.2447 55.4878 25.5299C53.2854 31.2246 52.3972 35.8649 52.8368 39.3456L27.3778 64.8048C25.3457 66.8366 23.7838 69.3493 22.8612 72.0714L20.7895 78.1845C13.343 78.1032 8.31563 76.3214 6.92462 73.2394C5.58535 70.2722 7.41114 65.8878 12.2049 60.5602C12.7459 59.9589 12.6971 59.0327 12.0957 58.4915C11.4947 57.9505 10.5682 57.9993 10.027 58.6007C4.31582 64.9478 2.37343 70.2788 4.2541 74.445C6.11758 78.5736 11.4754 80.8558 19.8028 81.0966L17.9828 86.465C17.3701 88.2722 17.828 90.2332 19.1772 91.5826C20.1307 92.5361 21.3895 93.0443 22.6838 93.0443C23.2211 93.0443 23.7645 92.9566 24.2946 92.7769L38.6882 87.8984C41.41 86.9761 43.9225 85.4142 45.955 83.3822L60.1991 69.138C63.6001 69.0487 67.5005 70.2507 72.4136 72.898C72.6347 73.0171 72.8726 73.0736 73.1072 73.0736C73.6287 73.0736 74.1335 72.7944 74.398 72.3032C74.7818 71.5911 74.5156 70.7027 73.8033 70.3189C69.6824 68.0984 66.156 66.8114 62.9626 66.3745L82.255 47.0821C82.2552 47.0819 82.2556 47.0817 82.2558 47.0813C82.256 47.0811 82.2562 47.0807 82.2566 47.0805L91.5826 37.7545C92.1547 37.1825 92.1547 36.2549 91.5826 35.6831C91.0103 35.111 90.083 35.111 89.5109 35.6831L87.873 37.3209L73.439 22.8869L81.3154 15.0106C82.1668 14.159 83.299 13.69 84.5035 13.69C85.708 13.69 86.8404 14.159 87.6918 15.0106L95.7494 23.0682C96.601 23.9198 97.0701 25.052 97.0701 26.2565C97.0701 27.4606 96.6012 28.593 95.7494 29.4448L94.2418 30.9524C93.6697 31.5245 93.6697 32.452 94.242 33.0241C94.8137 33.5959 95.7412 33.5961 96.3137 33.0239L97.8211 31.5163C99.2262 30.1114 100 28.2432 100 26.2565C100 24.269 99.2266 22.4008 97.8215 20.9959ZM64.7148 31.6108L68.1451 35.0409L36.6413 66.5448L36.7032 66.3005C36.9366 65.3784 36.6747 64.4265 36.002 63.7538C35.3298 63.0815 34.3774 62.8192 33.4553 63.0526L33.2112 63.1144L64.7148 31.6108ZM41.504 69.256C40.8317 68.5835 39.8803 68.3212 38.9573 68.5548L38.713 68.6167L70.2165 37.1129L73.6468 40.5432L42.1432 72.0468L42.205 71.8027C42.4386 70.8804 42.1764 69.9284 41.504 69.256ZM23.3543 90.0021C22.5989 90.2578 21.8123 90.0742 21.2489 89.5107C20.6854 88.9472 20.5016 88.1601 20.7575 87.4054L22.8932 81.1037L29.6561 87.8664L23.3543 90.0021ZM43.6011 81.5849C41.9372 83.1667 39.9217 84.3871 37.7483 85.1236L32.751 86.8173L23.9424 78.0089L25.636 73.0116C26.3727 70.8378 27.5932 68.8226 29.1752 67.1589L33.7573 65.9987L32.9932 69.0171C32.76 69.938 33.0213 70.8886 33.6921 71.5612C33.6928 71.562 33.6936 71.563 33.6944 71.5638C33.6954 71.5648 33.6964 71.5654 33.6971 71.5663C34.3696 72.237 35.3204 72.4986 36.2411 72.265L39.2594 71.5009L38.4954 74.5193C38.262 75.4413 38.5239 76.3933 39.1966 77.0659C39.869 77.7384 40.8216 78.0009 41.7432 77.7671L44.7614 77.0029L43.6011 81.5849ZM47.645 77.549L47.7069 77.3044C47.9403 76.3824 47.6784 75.4304 47.0057 74.7577C46.3333 74.0853 45.3813 73.8232 44.4591 74.0566L44.2149 74.1183L75.7185 42.6147L79.1488 46.045L47.645 77.549ZM85.8017 39.3919L81.2205 43.9731L66.7865 29.5391L71.3677 24.9578L85.8017 39.3919Z" fill="#5E5757"/>
</g>
<defs>
<clipPath id="clip0">
<rect width="100" height="100" fill="white"/>
</clipPath>
</defs>
</svg>
