<svg width="100" height="100" viewBox="0 0 100 100" fill="none" xmlns="http://www.w3.org/2000/svg">
<g clip-path="url(#clip0)">
<path d="M99.7447 46.4617L88.1907 34.9076C88.5106 33.9842 89.1223 31.9871 89.3707 29.6022C89.7839 25.6322 88.9849 22.3294 87.0637 19.9743C87.2516 19.5481 87.3527 19.0936 87.3675 18.6358L90.0999 17.9475L90.3284 19.3017C90.4002 19.7264 90.7684 20.027 91.1851 20.027C91.2331 20.027 91.2819 20.0228 91.3308 20.0146L97.5186 18.97C97.9925 18.89 98.3116 18.4411 98.2318 17.9675L97.5086 13.6834C97.4702 13.4559 97.3429 13.253 97.155 13.1193C96.9669 12.9857 96.7333 12.9324 96.5061 12.9703L90.318 14.0148C90.0905 14.0533 89.8876 14.1805 89.7539 14.3684C89.6201 14.5563 89.5666 14.7899 89.6049 15.0174L89.8089 16.2261L87.0037 16.9327C86.7107 16.3333 86.2516 15.7955 85.5922 15.4095C84.3605 14.6884 82.784 14.7599 81.6368 15.6091C80.6123 16.3677 80.1284 17.5208 80.1721 18.6571L78.2087 19.1518L78.6339 20.839L80.6566 20.3293C80.8095 20.5924 80.9946 20.8416 81.2197 21.0669C81.5193 21.3666 81.8604 21.5982 82.2229 21.7703C82.8712 23.1895 82.2003 26.0269 81.4137 28.1304L69.8204 16.5371C69.6573 16.374 69.4359 16.2822 69.2052 16.2822C68.9744 16.2822 68.7533 16.374 68.5899 16.5371L42.2394 42.8883L38.8152 39.4641C38.6521 39.301 38.4307 39.2092 38.2 39.2092C37.9693 39.2092 37.7481 39.301 37.5848 39.4641L36.607 40.4419L35.6755 39.5102L38.5875 36.5982C38.9272 36.2585 38.9272 35.7079 38.5875 35.3682L35.7999 32.5806C35.4602 32.2409 34.9094 32.2409 34.5697 32.5806L27.5152 39.6351C27.1755 39.9748 27.1755 40.5256 27.5152 40.8651L30.3028 43.6527C30.4726 43.8226 30.6953 43.9076 30.918 43.9076C31.1407 43.9076 31.3632 43.8226 31.5333 43.6527L34.4453 40.7407L35.3767 41.6724L34.399 42.6502C34.0593 42.9899 34.0593 43.5405 34.399 43.8802L36.002 45.4832L30.7271 50.7583L30.0912 50.1224C29.9157 49.9469 29.6734 49.8523 29.4261 49.8691L25.8049 50.077C25.5918 50.0892 25.3906 50.1794 25.2397 50.3303L10.562 65.0078C10.4111 65.1585 10.3211 65.3599 10.3087 65.573L10.101 69.1942C10.0868 69.4419 10.179 69.6838 10.3543 69.8593L11.1046 70.6096L6.96191 74.7525C6.72073 74.9937 6.62286 75.354 6.74074 75.6742C7.03563 76.4738 6.83795 77.3794 6.23858 77.9792C5.65379 78.5638 4.79954 78.7667 4.0101 78.5085C3.61082 78.3776 3.17586 78.5512 2.97535 78.9202L0.967826 82.6167C0.78384 82.9553 0.844734 83.3746 1.11723 83.6469L1.64048 84.1701L0.254285 85.5563C-0.0854128 85.896 -0.0854128 86.4469 0.254285 86.7866C0.593983 87.1263 1.14463 87.1263 1.48433 86.7866L2.87053 85.4004L3.62082 86.1507C3.79067 86.3205 4.01336 86.4055 4.23606 86.4055C4.45876 86.4055 4.68124 86.3205 4.8513 86.1507L15.7484 75.2536L16.4911 75.9962C16.6618 76.167 16.8947 76.2644 17.1361 76.2583C17.1452 76.2581 17.1544 76.2577 17.1635 76.257L20.7847 76.0493C20.9978 76.0371 21.199 75.9469 21.3499 75.796L36.0276 61.1183C36.1786 60.9675 36.2686 60.7662 36.281 60.553L36.4889 56.9318C36.503 56.6841 36.4108 56.4423 36.2355 56.2668L35.5996 55.6309L40.8745 50.3558L42.4776 51.9588C42.6407 52.1219 42.862 52.2137 43.0928 52.2137C43.3235 52.2137 43.5447 52.1219 43.708 51.9588L46.8938 48.773C47.2335 48.4333 47.2335 47.8826 46.8938 47.5429L43.4697 44.1188L43.8324 43.756L73.1415 73.0653C73.3046 73.2284 73.526 73.3202 73.7567 73.3202C73.9875 73.3202 74.2087 73.2284 74.372 73.0653L99.745 47.6921C100.084 47.3522 100.084 46.8014 99.7447 46.4617ZM95.938 14.831L96.3715 17.3996L91.8991 18.1545L91.4654 15.5859L95.938 14.831ZM30.9182 41.8074L29.3607 40.2501L35.1849 34.4261L36.7425 35.9834L30.9182 41.8074ZM4.23606 84.3049L2.80681 82.8759L4.19148 80.326C5.38716 80.4819 6.59459 80.0831 7.46863 79.209C8.40595 78.2715 8.79698 76.9197 8.5347 75.6398L12.3342 71.8403L14.5175 74.0233L4.23606 84.3049ZM34.5629 60.1222L20.3541 74.3312L17.453 74.4978L11.8603 68.905L12.0267 66.0039L26.2358 51.795L29.1367 51.6285L34.7293 57.2211L34.5629 60.1222ZM34.3694 54.4004L31.9576 51.9886L37.2325 46.7135L39.6443 49.1253L34.3694 54.4004ZM43.0928 50.1133L36.2447 43.2652L38.2004 41.3096L45.0486 48.1578L43.0928 50.1133ZM82.4501 17.1989C82.8138 16.8353 83.2916 16.6535 83.7691 16.6535C84.2467 16.6535 84.7247 16.8353 85.0881 17.1989C85.8156 17.9264 85.8156 19.1099 85.0881 19.8373C84.3609 20.5646 83.1772 20.5646 82.4499 19.8373C81.7229 19.1099 81.7229 17.9261 82.4501 17.1989ZM83.7313 26.5717C84.2089 24.7745 84.3396 23.28 84.1269 22.1034C84.778 22.0391 85.413 21.7957 85.9574 21.3788C88.7911 25.2255 87.5598 30.9802 86.8045 33.5214L82.7514 29.4683C83.0043 28.8511 83.4088 27.7861 83.7313 26.5717ZM88.4553 46.9634L73.6426 61.7761L65.4289 53.5625L80.2417 38.7497L88.4553 46.9634ZM70.114 60.7081L69.1828 61.6393L65.5659 58.0225L66.4972 57.0912L70.114 60.7081ZM71.3441 61.9381L73.0273 63.6214C73.1904 63.7845 73.4118 63.8763 73.6426 63.8763C73.8733 63.8763 74.0945 63.7845 74.2578 63.6214L90.3008 47.5782C90.6405 47.2385 90.6405 46.6876 90.3008 46.3481L88.6176 44.6649L89.5488 43.7336L92.3231 46.508L73.1872 65.6437L70.4128 62.8694L71.3441 61.9381ZM87.3873 43.4348L83.7704 39.818L84.7019 38.8867L88.3187 42.5036L87.3873 43.4348ZM82.5402 38.5877L80.8569 36.9044C80.6938 36.7413 80.4724 36.6496 80.2417 36.6496C80.0109 36.6496 79.7898 36.7413 79.6264 36.9044L63.5834 52.9477C63.2437 53.2874 63.2437 53.8382 63.5834 54.1777L65.2667 55.861L64.3354 56.7922L58.0106 50.4674L58.9418 49.5361L60.6251 51.2194C60.7882 51.3825 61.0096 51.4743 61.2403 51.4743C61.4711 51.4743 61.6922 51.3825 61.8556 51.2194L77.8988 35.1762C78.0619 35.013 78.1535 34.7917 78.1535 34.5611C78.1535 34.3306 78.0619 34.1092 77.8988 33.9461L76.2155 32.2628L77.1468 31.3316L83.4716 37.6565L82.5402 38.5877ZM76.0533 34.5611L61.2403 49.3739L53.0267 41.1602L67.8394 26.3477L76.0533 34.5611ZM57.7118 48.3061L56.7805 49.2373L53.1637 45.6205L54.0949 44.6892L57.7118 48.3061ZM74.9851 31.0326L71.3682 27.4159L72.2997 26.4845L75.9165 30.1013L74.9851 31.0326ZM70.1382 26.1857L68.4549 24.5024C68.115 24.1625 67.5643 24.1627 67.2246 24.5024L51.1816 40.5454C50.8419 40.8851 50.8419 41.436 51.1816 41.7755L52.8649 43.4587L51.9336 44.39L47.5658 40.0222L66.7018 20.8862L71.0696 25.254L70.1382 26.1857ZM73.7565 71.2196L45.0625 42.5258L46.3356 41.2527L72.5719 67.4892C72.735 67.6523 72.9564 67.7441 73.1872 67.7441C73.4179 67.7441 73.6391 67.6523 73.8024 67.4892L94.1684 47.1232C94.5081 46.7835 94.5081 46.2326 94.1684 45.8932L67.9319 19.6564L69.2054 18.3828L97.8995 47.0767L73.7565 71.2196Z" fill="#5D5757"/>
</g>
<defs>
<clipPath id="clip0">
<rect width="100" height="100" fill="white"/>
</clipPath>
</defs>
</svg>
